<svg xmlns="http://www.w3.org/2000/svg" xmlns:xlink="http://www.w3.org/1999/xlink" width="119.809" height="56.225" viewBox="0 0 119.809 56.225">
  <defs>
    <linearGradient id="linear-gradient" x1="0.576" y1="0.505" x2="-0.393" y2="0.098" gradientUnits="objectBoundingBox">
      <stop offset="0" stop-color="#8abd77"/>
      <stop offset="0.5" stop-color="#479b8d"/>
      <stop offset="1" stop-color="#0379a4"/>
    </linearGradient>
    <clipPath id="clip-path">
      <path id="Pfad_21" data-name="Pfad 21" d="M516,750.369a28.148,28.148,0,0,0,28.1,28.1,29.015,29.015,0,0,0,3.964-.271l.642-.09-.181-1.285-.642.09a27.985,27.985,0,0,1-3.783.281,26.824,26.824,0,1,1,19.869-44.827H565.7l-.411-.472A28.1,28.1,0,0,0,516,750.369" transform="translate(-516 -722.242)" fill="url(#linear-gradient)"/>
    </clipPath>
    <linearGradient id="linear-gradient-3" x1="0.49" y1="0.496" x2="-0.123" y2="0.23" gradientUnits="objectBoundingBox">
      <stop offset="0" stop-color="#8abd77"/>
      <stop offset="0.08" stop-color="#6bad81"/>
      <stop offset="0.18" stop-color="#4b9d8c"/>
      <stop offset="0.3" stop-color="#309095"/>
      <stop offset="0.42" stop-color="#1c869c"/>
      <stop offset="0.56" stop-color="#0e7ea0"/>
      <stop offset="0.72" stop-color="#067aa3"/>
      <stop offset="1" stop-color="#0379a4"/>
    </linearGradient>
  </defs>
  <g id="Gruppe_31" data-name="Gruppe 31" transform="translate(-712 -17)">
    <g id="Smart-City_Logo_2022" transform="translate(712 17)">
      <path id="Pfad_5" data-name="Pfad 5" d="M542.139,744.891a4.557,4.557,0,0,0-2.91-1.094c-1.686,0-2.479.743-2.479,1.7,0,1.144.512,1.756,2.168,2.78l1.566,1c2.007,1.264,3.171,2.569,3.171,4.646,0,2.348-1.766,4.375-5.339,4.375a6.373,6.373,0,0,1-4.385-1.485l.863-2.218a5.018,5.018,0,0,0,3.472,1.5c1.937,0,2.83-.863,2.83-1.846,0-1.234-.612-1.866-2.127-2.87l-1.586-1c-2.168-1.445-3.151-2.549-3.151-4.736s1.867-3.944,4.877-3.944a5.751,5.751,0,0,1,3.844,1.214" transform="translate(-515.937 -722.174)" fill="#0379a4"/>
      <path id="Pfad_6" data-name="Pfad 6" d="M548.628,748.005h0a4.135,4.135,0,0,1,3.312-1.545,3.011,3.011,0,0,1,2.89,1.616,4.566,4.566,0,0,1,3.472-1.616c2.519,0,3.8,1.515,3.8,4.506v7.025h-2.358v-6.674c0-2.007-.7-2.82-2.117-2.82a3.272,3.272,0,0,0-2.308,1,9.3,9.3,0,0,1,.11,1.445v7.025h-2.308V751.3c0-2.007-.552-2.82-1.836-2.82a3.332,3.332,0,0,0-2.479,1v8.47H546.43V746.691h2.2" transform="translate(-515.893 -722.157)" fill="#0379a4"/>
      <path id="Pfad_7" data-name="Pfad 7" d="M570.691,755.392V753.1h-.863c-1.836.09-2.75.532-2.75,1.606a1.455,1.455,0,0,0,1.425,1.565,2.7,2.7,0,0,0,2.188-.933m-.723-3.823h.723v-.652c0-1.726-.723-2.479-2.1-2.479a4.246,4.246,0,0,0-2.729,1.054l-.793-1.606a5.751,5.751,0,0,1,4.014-1.475c2.559,0,3.944,1.445,3.944,4.546v4.345a21.338,21.338,0,0,0,.16,2.659h-2.218c0-.331-.07-.753-.07-1.244h-.05a3.2,3.2,0,0,1-2.93,1.515,3.01,3.01,0,0,1-3.111-3.281c0-2.338,2.268-3.382,5.178-3.382" transform="translate(-515.829 -722.157)" fill="#0379a4"/>
      <path id="Pfad_8" data-name="Pfad 8" d="M582.251,748.718a2.005,2.005,0,0,0-1-.181,2.75,2.75,0,0,0-2.539,1.395v8.028H576.33v-11.27h2.188V748.3h.05a2.91,2.91,0,0,1,2.85-1.816,3.335,3.335,0,0,1,1,.141" transform="translate(-515.788 -722.157)" fill="#0379a4"/>
      <path id="Pfad_9" data-name="Pfad 9" d="M590.333,748.638h-2.75v5.248c0,1.706.441,2.308,1.585,2.308a3.223,3.223,0,0,0,1.264-.281l.2,1.816a3.873,3.873,0,0,1-2.067.492c-2.358,0-3.362-1.214-3.362-4.084v-5.5H583.67v-1.626l1.535-.281.281-3.141h2.1v3.121h3.011" transform="translate(-515.762 -722.167)" fill="#0379a4"/>
      <path id="Pfad_10" data-name="Pfad 10" d="M605.657,741.6a6.02,6.02,0,0,1,4.245,1.475l-.863,1.937a4.637,4.637,0,0,0-3.261-1.254c-2.75,0-5.088,1.676-5.088,6.021s1.846,6.3,4.827,6.3a5.249,5.249,0,0,0,3.522-1.234l.7,1.847a6.452,6.452,0,0,1-4.646,1.565c-4.245,0-7.135-2.459-7.135-8.359s3.894-8.3,7.7-8.3" transform="translate(-515.712 -722.174)" fill="#0379a4"/>
      <path id="Pfad_11" data-name="Pfad 11" d="M614.839,757.978h-2.378V746.709h2.378Zm-1.184-13.628a1.505,1.505,0,1,1,1.505-1.505,1.505,1.505,0,0,1-1.505,1.505" transform="translate(-515.662 -722.175)" fill="#0379a4"/>
      <path id="Pfad_12" data-name="Pfad 12" d="M623.943,748.638h-2.75v5.248c0,1.706.442,2.308,1.586,2.308a3.162,3.162,0,0,0,1.254-.281l.211,1.816a3.952,3.952,0,0,1-2.077.492c-2.348,0-3.352-1.214-3.352-4.084v-5.5H617.27v-1.626l1.545-.281.271-3.141h2.107v3.121h3.01" transform="translate(-515.644 -722.167)" fill="#0379a4"/>
      <path id="Pfad_13" data-name="Pfad 13" d="M631.381,758.281c-1.054,3.081-2.147,4.476-4.646,4.476a2.128,2.128,0,0,1-1-.211v-2.007a2.44,2.44,0,0,0,.883.161c1.515,0,2.188-.723,2.679-2.268l.191-.552-4.155-11.2h2.539l2.709,8.229h.05l2.469-8.229h2.328" transform="translate(-515.616 -722.156)" fill="#0379a4"/>
      <path id="Pfad_14" data-name="Pfad 14" d="M561,765.743v4.125h.191c1.445,0,2.208-.582,2.208-2.148s-.723-2.007-2.127-2.007m-1.455,5.108V764.74h1.455c2.308,0,3.362.853,3.362,2.95s-1.325,3.131-3.442,3.131" transform="translate(-515.846 -722.093)" fill="#3c3c3b"/>
      <path id="Pfad_15" data-name="Pfad 15" d="M53.853,43.373H53.13V42.52h2.629v.853h-.723v4.365h.733v.853H53.12v-.853h.733" transform="translate(0.146 0.167)" fill="#3c3c3b"/>
      <path id="Pfad_16" data-name="Pfad 16" d="M578.589,766.285h0l-.672,2.077h1.355m.783,2.489-.522-1.646h-1.876l-.532,1.646H575.94l2.238-6.081h.923l2.238,6.081" transform="translate(-515.789 -722.093)" fill="#3c3c3b"/>
      <path id="Pfad_17" data-name="Pfad 17" d="M71.044,42.52v5.108h2.418l-.07.963H69.87V42.52" transform="translate(0.205 0.167)" fill="#3c3c3b"/>
      <path id="Pfad_18" data-name="Pfad 18" d="M596.38,765.663c-1,0-1.535.693-1.535,2.148s.572,2.147,1.535,2.147,1.525-.712,1.525-2.147-.582-2.148-1.525-2.148m0,5.289c-1.626,0-2.76-1.074-2.76-3.141s1.154-3.151,2.77-3.151,2.76,1.084,2.76,3.151-1.144,3.141-2.77,3.141" transform="translate(-515.727 -722.093)" fill="#3c3c3b"/>
      <path id="Pfad_19" data-name="Pfad 19" d="M608.5,770.36a2.7,2.7,0,0,1-1.907.592c-1.626,0-2.85-.833-2.85-3.171a2.93,2.93,0,0,1,3.011-3.121,2.578,2.578,0,0,1,1.776.6l-.411.893a1.917,1.917,0,0,0-3.181,1.626c0,1.545.662,2.177,1.776,2.177a2.886,2.886,0,0,0,.632-.07v-1.325h-1v-.953h2.148" transform="translate(-515.692 -722.093)" fill="#3c3c3b"/>
      <path id="Pfad_20" data-name="Pfad 20" d="M516,750.369a28.148,28.148,0,0,0,28.1,28.1,29.015,29.015,0,0,0,3.964-.271l.642-.09-.181-1.285-.642.09a27.985,27.985,0,0,1-3.783.281,26.824,26.824,0,1,1,19.869-44.827H565.7l-.411-.472A28.1,28.1,0,0,0,516,750.369" transform="translate(-516 -722.242)" fill="url(#linear-gradient)"/>
      <g id="Gruppe_30" data-name="Gruppe 30" transform="translate(0 0)" clip-path="url(#clip-path)">
        <rect id="Rechteck_109" data-name="Rechteck 109" width="49.714" height="56.237" transform="translate(-0.04 0.018)" fill="url(#linear-gradient-3)"/>
      </g>
    </g>
  </g>
</svg>
